<svg xmlns="http://www.w3.org/2000/svg" width="73" height="73" viewBox="0 0 73 73" fill="none" transform="matrix(-1, 0, 0, 1, 0, 0)">
<circle cx="36.5" cy="36.7725" r="36" fill="#015fc9"/>
<path d="M20.0236 51.378H21.5354C21.8504 53.8347 23.9291 55.7245 26.4488 55.7245C28.9685 55.7245 31.0472 53.8347 31.3622 51.378H41.8189C42.1339 53.8347 44.2126 55.7245 46.7323 55.7245C49.252 55.7245 51.3307 53.8347 51.6457 51.378H54.5433C55.9291 51.378 57 50.2442 57 48.9214V43.378C57 42.3072 56.3071 41.3623 55.2992 41.0473L50.8898 39.6615L47.4252 30.7166C47.2992 30.4647 47.1102 30.2757 46.7953 30.2757H39.9291V28.3859C39.9291 26.8111 38.6063 25.4883 37.0315 25.4883C35.4567 25.4883 34.1339 26.8111 34.1339 28.3859V30.2757H20.0236C18.3858 30.2757 17 31.5985 17 33.2993V48.4174C17.063 50.0552 18.3858 51.378 20.0236 51.378ZM26.4488 54.4647C24.4331 54.4647 22.8583 52.8269 22.8583 50.8741C22.8583 48.9214 24.4961 47.2836 26.4488 47.2836C28.4646 47.2836 30.0394 48.9214 30.0394 50.8741C30.0394 52.8269 28.4646 54.4647 26.4488 54.4647ZM46.7953 54.4647C44.7795 54.4647 43.2047 52.8269 43.2047 50.8741C43.2047 48.9214 44.8425 47.2836 46.7953 47.2836C48.811 47.2836 50.3858 48.9214 50.3858 50.8741C50.3858 52.8269 48.811 54.4647 46.7953 54.4647ZM49.378 39.4725H43.1417V31.5985H46.2913L49.378 39.4725ZM35.4567 28.3859C35.4567 27.504 36.1496 26.8111 37.0315 26.8111C37.9134 26.8111 38.6063 27.504 38.6063 28.3859V30.2757H35.5197V28.3859H35.4567ZM18.3858 33.2363C18.3858 32.2914 19.1417 31.5355 20.0866 31.5355H34.8268H39.2992H41.8819V40.1025C41.8819 40.4804 42.1969 40.7954 42.5748 40.7954H50.2598L54.9213 42.2442C55.3622 42.3702 55.6772 42.8111 55.6772 43.3151V48.8584C55.6772 49.4883 55.1732 49.9922 54.5433 49.9922H51.6457C51.2677 47.5985 49.252 45.7717 46.7323 45.7717C44.2756 45.7717 42.1969 47.5985 41.8189 49.9922H31.3622C30.9843 47.5985 28.9685 45.7717 26.4488 45.7717C23.9291 45.7717 21.9134 47.5985 21.5354 49.9922H20.0236C19.0787 49.9922 18.3228 49.2363 18.3228 48.2914V33.2363H18.3858Z" fill="white"/>
<path d="M31.2997 44.322C34.3233 44.322 36.78 41.8653 36.78 38.8416C36.78 35.818 34.3233 33.3613 31.2997 33.3613C28.276 33.3613 25.8193 35.818 25.8193 38.8416C25.8193 41.8653 28.276 44.322 31.2997 44.322ZM31.2997 34.6842C33.5674 34.6842 35.4571 36.5739 35.4571 38.8416C35.4571 41.1094 33.5674 42.9991 31.2997 42.9991C29.0319 42.9991 27.1422 41.1094 27.1422 38.8416C27.1422 36.5739 29.0319 34.6842 31.2997 34.6842Z" fill="white"/>
<path d="M37.0308 22.6535C37.4088 22.6535 37.7237 22.3386 37.7237 21.9606V19.6929C37.7237 19.315 37.4088 19 37.0308 19C36.6529 19 36.3379 19.315 36.3379 19.6929V21.9606C36.3379 22.3386 36.6529 22.6535 37.0308 22.6535Z" fill="white"/>
<path d="M41.6919 24.5436C41.8809 24.5436 42.0069 24.4806 42.1329 24.3547L43.7707 22.7169C44.0226 22.4649 44.0226 22.024 43.7707 21.772C43.5187 21.52 43.0778 21.52 42.8258 21.772L41.188 23.4098C40.936 23.6617 40.936 24.1027 41.188 24.3547C41.314 24.4806 41.503 24.5436 41.6919 24.5436Z" fill="white"/>
<path d="M31.8663 24.3547C31.9923 24.4806 32.1813 24.5436 32.3073 24.5436C32.4333 24.5436 32.6222 24.4806 32.7482 24.3547C33.0002 24.1027 33.0002 23.6617 32.7482 23.4098L31.1104 21.772C30.8585 21.52 30.4175 21.52 30.1655 21.772C29.9136 22.024 29.9136 22.4649 30.1655 22.7169L31.8663 24.3547Z" fill="white"/>
<path d="M29.9766 39.4738H30.6695V40.1667C30.6695 40.5447 30.9845 40.8596 31.3624 40.8596C31.7404 40.8596 31.9924 40.5447 31.9924 40.1667V39.4738H32.6223C33.0002 39.4738 33.3152 39.1588 33.3152 38.7809C33.3152 38.4029 33.0002 38.088 32.6223 38.088H31.9924V37.3951C31.9924 37.0171 31.6774 36.7021 31.2994 36.7021C30.9215 36.7021 30.6065 37.0171 30.6065 37.3951V38.088H29.9136C29.5357 38.088 29.2207 38.4029 29.2207 38.7809C29.2837 39.2218 29.5987 39.4738 29.9766 39.4738Z" fill="white"/>
</svg>