<svg xmlns="http://www.w3.org/2000/svg" width="73" height="73" viewBox="0 0 73 73" fill="none">
<circle cx="36.5" cy="36.0186" r="36" fill="#015fc9"/>
<path d="M57.0835 18.2555C56.8076 17.9754 56.3188 17.9754 56.0429 18.2555L54.1404 20.1919C53.9911 20.3438 53.9134 20.5587 53.9262 20.7737C53.9361 20.9285 53.9077 21.4322 53.6664 21.6954C53.6171 21.748 53.4692 21.907 53.051 21.907C52.8325 21.907 52.6258 22.0063 52.485 22.1775C52.3456 22.3476 52.2882 22.5737 52.3285 22.7911C52.33 22.8056 52.5656 24.2349 51.8326 25.1319C51.4003 25.6593 50.6769 25.9264 49.6846 25.9264C49.4533 25.9264 49.2347 26.0372 49.0968 26.2257C48.9375 26.4407 48.2107 27.2414 47.5527 27.2414C47.3242 27.2414 47.1061 27.1406 46.9217 26.9681C46.6221 26.6408 46.6055 26.3824 46.6197 26.2156C46.6728 25.5841 47.3768 24.9078 47.6186 24.7203C47.8016 24.5786 47.9106 24.3568 47.9106 24.123C47.9106 22.3139 48.7654 21.3965 50.4488 21.3965C50.756 21.3965 50.9708 21.4313 50.9931 21.4346C51.2088 21.4756 51.4302 21.4168 51.5966 21.2751C51.7644 21.1319 51.8625 20.9217 51.8625 20.6995C51.8625 20.4792 51.8625 19.8067 52.9704 19.8067C52.9719 19.8067 52.9719 19.8067 52.9733 19.8067C53.1847 19.8183 53.3976 19.7436 53.5497 19.5903L55.4541 17.6558C55.5921 17.5156 55.6693 17.3252 55.6693 17.1266C55.6693 16.9279 55.5921 16.738 55.4541 16.5977C55.053 16.1899 54.3533 16 53.2516 16C51.4207 16 48.6592 16.536 46.8511 16.995C44.7637 17.5257 36.2598 23.2838 32.7497 25.7032L20.7831 32.5975C19.7155 33.2125 18.9774 34.2692 18.7583 35.4965C18.6242 36.2533 18.719 37.0121 18.9783 37.712C17.0166 38.7407 14.3129 41.1047 15.1596 44.4245C15.6129 46.2043 16.9113 46.9143 18.0567 47.5415C19.9018 48.5514 21.644 49.5039 20.7077 55.128C20.6399 55.5343 20.9106 55.9214 21.3103 55.9899C21.352 55.9971 21.3928 56 21.434 56C21.7867 56 22.0977 55.7411 22.1589 55.3757C23.2706 48.6941 20.7665 47.325 18.7541 46.2231C17.7045 45.649 16.8758 45.1958 16.5833 44.049C15.8812 41.296 18.6389 39.5689 19.7245 39.0063C21.0367 40.5156 23.3901 40.8593 25.0602 39.7559L37.2752 31.6787C38.8202 31.5046 39.9528 32.8428 40.2998 33.3046C40.334 33.3663 40.3757 33.4232 40.4226 33.4743L40.4202 33.4757C40.497 33.5895 40.6075 33.6748 40.7322 33.7269C41.2518 34.1506 42.3872 35.2569 42.253 36.7402L34.3094 49.1616C33.1735 50.9356 33.5206 53.2981 35.1172 54.657C35.8582 55.2899 36.7959 55.6375 37.7583 55.6375H37.7593C39.2431 55.6375 40.6184 54.8224 41.3499 53.5102L48.0974 41.3905C50.5086 37.7698 56.1719 29.1199 56.6919 27.0037C57.2328 24.8032 58.3535 19.5474 57.0835 18.2555ZM55.264 26.6417C54.8862 28.1819 50.5105 35.0978 46.8468 40.6067L40.0699 52.7736C39.6001 53.6167 38.7141 54.1412 37.7593 54.1412H37.7583C37.1321 54.1412 36.5456 53.9238 36.0621 53.5102C35.0362 52.6363 34.8129 51.1178 35.5425 49.9768L43.5795 37.4107C43.6368 37.3215 43.6748 37.2198 43.6909 37.1143C44.0583 34.6172 42.1269 32.9195 41.5021 32.4432C41.0574 31.8382 39.3749 29.8435 36.9078 30.2181C36.8035 30.234 36.704 30.2716 36.6163 30.3304L24.2576 38.5021C23.1639 39.2237 21.6156 38.9856 20.7822 37.9742C20.2759 37.3596 20.0658 36.5527 20.2062 35.7636C20.347 34.973 20.822 34.2938 21.5089 33.8995L33.5281 26.9763C39.3019 22.9945 45.7707 18.8123 47.2066 18.4488C48.9342 18.0106 51.5539 17.4977 53.2511 17.4977C53.3487 17.4977 53.4402 17.4992 53.5237 17.5035L52.722 18.3172C51.8052 18.3741 50.8238 18.8229 50.5005 19.9012C50.483 19.9012 50.4659 19.9012 50.4488 19.9012C48.0533 19.9012 46.579 21.3387 46.4486 23.7677C46.0134 24.1707 45.2468 25.0201 45.1539 26.0821C45.0946 26.7704 45.3331 27.4308 45.8811 28.0252C46.3798 28.4986 46.9421 28.7382 47.5527 28.7382C48.6914 28.7382 49.6121 27.8864 50.0331 27.4145C51.3131 27.347 52.2977 26.902 52.9633 26.0879C53.7076 25.1787 53.8423 24.0329 53.8356 23.2876C54.2651 23.1522 54.5581 22.9164 54.7482 22.7077C55.2427 22.1659 55.3678 21.4616 55.3934 21.0331L56.1994 20.2122C56.234 21.4968 55.9353 23.9138 55.264 26.6417Z" fill="white"/>
</svg>