<svg xmlns="http://www.w3.org/2000/svg" width="73" height="73" viewBox="0 0 73 73" fill="none" transform="matrix(-1, 0, 0, 1, 0, 0)">
<circle cx="36.5" cy="36.7725" r="36" fill="#015fc9"/>
<path fill-rule="evenodd" clip-rule="evenodd" d="M28.1161 28.1108L27.5198 28.7072C27.29 28.937 27.29 29.3105 27.5198 29.5403L29.6516 31.671L29.39 31.9326C28.7737 32.5489 28.4284 33.3833 28.4284 34.2542C28.4284 37.231 28.4284 45.4296 28.4284 49.7168C28.4284 50.5877 28.7737 51.4232 29.39 52.0384C30.0052 52.6547 30.8407 53 31.7104 53C36.4372 53 46.1666 53 50.8922 53C51.7631 53 52.5987 52.6547 53.2138 52.0384C53.8302 51.4232 54.1754 50.5877 54.1754 49.7168C54.1754 45.5109 54.1754 37.2805 54.1754 31.6203C54.1754 27.9848 51.2281 25.0374 47.5926 25.0374C43.9558 25.0374 39.6415 25.0374 37.6452 25.0374C36.7743 25.0374 35.9387 25.3827 35.3236 25.999L34.8121 26.5093L32.6814 24.3787C32.4516 24.1489 32.0781 24.1489 31.8483 24.3787L31.4382 24.7888L28.4508 21.8002C27.9382 21.2875 27.2428 21 26.5181 21H20.5892C20.264 21 20 21.264 20 21.5892V24.9691C20 25.2943 20.264 25.5583 20.5892 25.5583H25.5624L28.1161 28.1108ZM29.6069 34.2542C29.6069 33.6956 29.8284 33.1606 30.2232 32.7658C31.6656 31.3233 34.7143 28.2747 36.1568 26.8322C36.5515 26.4374 37.0866 26.2159 37.6452 26.2159H47.5926C50.5776 26.2159 52.997 28.6353 52.997 31.6203V49.7168C52.997 50.2754 52.7754 50.8104 52.3806 51.2052C51.9858 51.6 51.4508 51.8215 50.8922 51.8215C46.1666 51.8215 36.4372 51.8215 31.7104 51.8215C31.153 51.8215 30.6179 51.6 30.2232 51.2052C29.8284 50.8104 29.6069 50.2754 29.6069 49.7168V34.2542ZM41.7745 37.0295C41.6625 36.881 41.4881 36.7926 41.3019 36.7926C41.1157 36.7926 40.9401 36.881 40.8293 37.0295C40.8293 37.0295 39.5413 38.7583 38.767 40.3138C38.397 41.0598 38.153 41.7763 38.153 42.2831C38.153 44.0213 39.5637 45.4319 41.3019 45.4319C43.0401 45.4319 44.4507 44.0213 44.4507 42.2831C44.4507 41.7763 44.2068 41.0598 43.8356 40.3138C43.0625 38.7583 41.7745 37.0295 41.7745 37.0295ZM41.3019 38.3977C41.7238 39.0093 42.3401 39.9532 42.7809 40.8394C43.0555 41.3898 43.2723 41.9083 43.2723 42.2831C43.2723 43.3708 42.3896 44.2534 41.3019 44.2534C40.2142 44.2534 39.3315 43.3708 39.3315 42.2831C39.3315 41.9083 39.5483 41.3898 39.8229 40.8394C40.2625 39.9532 40.88 39.0093 41.3019 38.3977ZM48.3326 29.8267C48.3326 29.3765 48.1535 28.944 47.8353 28.6247C47.5159 28.3065 47.0835 28.1273 46.6333 28.1273C45.0141 28.1273 42.0232 28.1273 40.404 28.1273C39.9526 28.1273 39.5201 28.3065 39.2019 28.6247C38.8825 28.944 38.7034 29.3765 38.7034 29.8267C38.7034 30.0235 38.7034 30.2285 38.7034 30.4254C38.7034 30.8755 38.8825 31.308 39.2019 31.6274C39.5201 31.9456 39.9526 32.1247 40.404 32.1247C42.0232 32.1247 45.0141 32.1247 46.6333 32.1247C47.0835 32.1247 47.5159 31.9456 47.8353 31.6274C48.1535 31.308 48.3326 30.8755 48.3326 30.4254V29.8267ZM47.1542 29.8267V30.4254C47.1542 30.5632 47.1 30.6964 47.0022 30.7942C46.9044 30.892 46.7712 30.9462 46.6333 30.9462H40.404C40.2661 30.9462 40.1329 30.892 40.0351 30.7942C39.9373 30.6964 39.8819 30.5632 39.8819 30.4254V29.8267C39.8819 29.6888 39.9373 29.5556 40.0351 29.4578C40.1329 29.36 40.2661 29.3058 40.404 29.3058H46.6333C46.7712 29.3058 46.9044 29.36 47.0022 29.4578C47.1 29.5556 47.1542 29.6888 47.1542 29.8267ZM32.2655 25.629L28.7701 29.1231L30.4848 30.8378L33.9789 27.3425L32.2655 25.629ZM30.605 25.6219L27.6176 22.6334C27.3253 22.3423 26.9306 22.1785 26.5181 22.1785H21.1785V24.3798H25.8063C25.963 24.3798 26.1127 24.4411 26.2235 24.5519L28.9492 27.2777L30.605 25.6219Z" fill="white"/>
</svg>