<svg xmlns="http://www.w3.org/2000/svg" width="73" height="73" viewBox="0 0 73 73" fill="none" transform="matrix(-1, 0, 0, 1, 0, 0)">
<circle cx="36.5" cy="36.6416" r="36" fill="#015fc9"/>
<path d="M55.2972 36.1616L52.4162 34.9238L50.0095 30.2365C49.7244 29.676 49.29 29.205 48.7542 28.8755C48.2184 28.5459 47.6021 28.3707 46.973 28.369H46.6721L46.134 26.44C46.0985 26.3208 46.0239 26.217 45.9221 26.1455C45.8204 26.074 45.6975 26.0388 45.5733 26.0458H43.9689C43.8448 26.0389 43.722 26.0741 43.6203 26.1456C43.5187 26.2172 43.4441 26.3209 43.4087 26.44L42.8705 28.369H41.2303C41.0732 28.3758 40.9249 28.4433 40.8166 28.5572C40.7083 28.6712 40.6483 28.8226 40.6494 28.9798V34.1338L33.0229 39.5702H17.0639C16.9894 39.5687 16.9153 39.5824 16.8462 39.6103C16.7771 39.6381 16.7143 39.6797 16.6616 39.7325C16.6089 39.7852 16.5675 39.8481 16.5397 39.9173C16.512 39.9865 16.4985 40.0606 16.5001 40.1351V44.4352C16.5001 45.5378 17.3803 46.4569 18.4835 46.4569H19.3174C19.298 46.6197 19.2881 46.7835 19.2878 46.9474C19.2874 48.1061 19.7474 49.2175 20.5666 50.0371C21.3859 50.8566 22.4972 51.3173 23.6561 51.3176C24.815 51.318 25.9266 50.8581 26.7463 50.039C27.5661 49.2199 28.0268 48.1088 28.0271 46.9501C28.0268 46.7853 28.0169 46.6206 27.9974 46.4569H44.3138C44.2944 46.6197 44.2844 46.7834 44.2841 46.9474C44.2837 48.1061 44.7438 49.2175 45.563 50.0371C46.3822 50.8566 47.4935 51.3173 48.6524 51.3176C49.8113 51.318 50.9229 50.8581 51.7427 50.039C52.5624 49.2199 53.0231 48.1088 53.0235 46.9501C53.0231 46.7853 53.0132 46.6206 52.9938 46.4569H54.5166C55.6195 46.4569 56.5 45.5378 56.5 44.4352V37.9992C56.502 37.6087 56.389 37.2262 56.1751 36.8995C55.9612 36.5727 55.6559 36.3161 55.2972 36.1616ZM44.412 27.2074H45.1307L45.4674 28.369H44.0752L44.412 27.2074ZM46.973 29.5306C47.3875 29.529 47.7943 29.6421 48.1485 29.8573C48.5026 30.0726 48.7903 30.3817 48.9796 30.7503L51.0467 34.7578H41.8112V29.5306H46.973ZM40.6494 35.559V39.5702H35.0281L40.6494 35.559ZM23.6574 50.1436C23.023 50.1437 22.4028 49.9556 21.8752 49.6032C21.3477 49.2507 20.9365 48.7498 20.6937 48.1638C20.4509 47.5777 20.3874 46.9329 20.5111 46.3107C20.6349 45.6885 20.9404 45.1171 21.389 44.6685C21.8377 44.2199 22.4092 43.9145 23.0315 43.7907C23.6538 43.667 24.2988 43.7305 24.8849 43.9732C25.4711 44.216 25.9721 44.627 26.3246 45.1545C26.6771 45.6819 26.8652 46.302 26.8652 46.9364C26.8642 47.7867 26.526 48.6019 25.9246 49.2031C25.3232 49.8044 24.5079 50.1426 23.6574 50.1436ZM23.6574 42.5895C22.7924 42.5924 21.9474 42.8508 21.2287 43.3322C20.51 43.8136 19.9495 44.4965 19.6175 45.2953H18.4835C18.2607 45.2894 18.0493 45.1957 17.8954 45.0346C17.7415 44.8734 17.6576 44.6579 17.662 44.4352V40.7318H40.6494V45.2953H27.6973C27.3654 44.4965 26.8049 43.8136 26.0862 43.3322C25.3675 42.8508 24.5225 42.5924 23.6574 42.5895ZM48.6538 50.1436C48.0193 50.1436 47.3991 49.9555 46.8716 49.6031C46.3441 49.2507 45.9329 48.7498 45.6901 48.1637C45.4473 47.5777 45.3838 46.9328 45.5075 46.3107C45.6313 45.6885 45.9368 45.117 46.3855 44.6685C46.8341 44.2199 47.4057 43.9145 48.028 43.7907C48.6502 43.667 49.2952 43.7305 49.8814 43.9732C50.4675 44.216 50.9685 44.6271 51.321 45.1545C51.6735 45.6819 51.8617 46.302 51.8617 46.9364C51.8607 47.7867 51.5224 48.6019 50.921 49.2032C50.3196 49.8044 49.5043 50.1427 48.6538 50.1436ZM55.3382 44.4352C55.3425 44.6579 55.2586 44.8734 55.1047 45.0346C54.9508 45.1957 54.7394 45.2894 54.5166 45.2953H52.6934C52.3639 44.4947 51.8041 43.8102 51.0848 43.3284C50.3655 42.8466 49.5192 42.5894 48.6535 42.5894C47.7877 42.5894 46.9414 42.8466 46.2221 43.3284C45.5028 43.8102 44.943 44.4947 44.6135 45.2953H41.8112V35.9194H51.8803L54.839 37.2107C54.9896 37.2797 55.1169 37.3909 55.2055 37.5308C55.2941 37.6707 55.3402 37.8334 55.3382 37.999V44.4352Z" fill="white" stroke="white" stroke-width="0.3"/>
<path fill-rule="evenodd" clip-rule="evenodd" d="M22.0559 25.293L37.7274 36.5114L37.0914 37.3977L21.4199 26.1793L22.0559 25.293Z" fill="white" stroke="white" stroke-width="0.3"/>
<path fill-rule="evenodd" clip-rule="evenodd" d="M19.8641 26.2271C20.818 26.2271 21.5914 25.4538 21.5914 24.4998C21.5914 23.5459 20.818 22.7725 19.8641 22.7725C18.9101 22.7725 18.1368 23.5459 18.1368 24.4998C18.1368 25.4538 18.9101 26.2271 19.8641 26.2271ZM19.8641 27.318C21.4205 27.318 22.6823 26.0563 22.6823 24.4998C22.6823 22.9434 21.4205 21.6816 19.8641 21.6816C18.3076 21.6816 17.0459 22.9434 17.0459 24.4998C17.0459 26.0563 18.3076 27.318 19.8641 27.318Z" fill="white" stroke="white" stroke-width="0.3"/>
<path fill-rule="evenodd" clip-rule="evenodd" d="M19.5 30.5499C18.4456 30.5499 17.5909 31.4046 17.5909 32.459C17.5909 33.5133 18.4456 34.3681 19.5 34.3681C19.8218 34.3681 20.3167 34.267 20.7154 33.98C21.0863 33.7129 21.4091 33.263 21.4091 32.459C21.4091 32.1577 21.6533 31.9135 21.9545 31.9135C22.2558 31.9135 22.5 32.1577 22.5 32.459C22.5 33.6186 22.0046 34.396 21.3528 34.8653C20.7288 35.3146 19.9964 35.459 19.5 35.459C17.8431 35.459 16.5 34.1158 16.5 32.459C16.5 30.8021 17.8431 29.459 19.5 29.459C19.8012 29.459 20.0455 29.7032 20.0455 30.0044C20.0455 30.3057 19.8012 30.5499 19.5 30.5499Z" fill="white" stroke="white" stroke-width="0.3" stroke-linecap="round"/>
<path fill-rule="evenodd" clip-rule="evenodd" d="M19.2773 30.5705L19.2773 26.6816L20.3885 26.6816L20.3885 30.5705L19.2773 30.5705Z" fill="white" stroke="white" stroke-width="0.3"/>
</svg>