<svg xmlns="http://www.w3.org/2000/svg" width="73" height="73" viewBox="0 0 73 73" fill="none">
<circle cx="36.5" cy="36.6416" r="36" fill="#015fc9"/>
<path d="M41.7201 43.9251C40.6242 43.9251 39.5754 43.519 38.6474 42.6967C38.4696 42.5389 38.2866 42.3812 38.0551 42.1815C37.9309 42.0741 37.7916 41.955 37.6305 41.8157C37.6154 41.8039 37.602 41.7905 37.5902 41.7771L32.3259 36.3182C32.148 36.1403 31.9802 35.9809 31.8191 35.8265C31.4784 35.5026 31.1848 35.2224 30.9163 34.8918C30.2333 34.0494 29.9363 32.925 30.0772 31.7268C30.2165 30.537 30.787 29.3724 31.6798 28.4495C35.3902 24.6216 37.6689 22.341 41.4382 18.6911C43.4956 16.6975 46.4675 16.4307 48.2044 18.0819C50.7618 20.5169 53.3463 23.0962 55.8835 25.7494C57.6572 27.6054 57.2813 30.6494 54.9874 32.989C51.7268 36.3151 49.775 38.2448 46.5397 41.4436L46.2796 41.7003C44.7861 43.1771 43.2087 43.9255 41.7203 43.9255L41.7201 43.9251ZM38.4695 40.8894C38.6206 41.0203 38.7515 41.1327 38.8706 41.2351C39.1055 41.4381 39.2918 41.5975 39.4764 41.762C41.1411 43.2354 43.2992 42.8897 45.3985 40.8156L45.6586 40.5588C48.8889 37.3637 50.8391 35.4371 54.0929 32.118C55.8952 30.2788 56.2677 27.9663 54.9789 26.617C52.455 23.9773 49.886 21.4116 47.3419 18.9916C46.1136 17.8236 43.8565 18.0938 42.3075 19.5924C38.5502 23.2322 36.2763 25.5045 32.5779 29.3219C31.1834 30.7618 30.8797 32.8628 31.8882 34.1081C32.1063 34.3766 32.3732 34.6317 32.682 34.9253C32.8498 35.0848 33.0243 35.2509 33.2139 35.4405C33.2173 35.4439 33.219 35.4455 33.2223 35.4489L38.4695 40.8894Z" fill="white"/>
<path d="M18.7727 56.9998C18.1686 56.9998 17.7692 56.8908 17.4537 56.587C16.8882 56.04 16.9586 55.1891 17.0979 53.4942L17.1264 53.1569C17.2943 51.0895 18.1232 49.4902 19.9004 47.8106C22.1759 45.6575 25.1393 42.667 27.7539 40.031C28.7675 39.0073 29.7257 38.0407 30.5815 37.1865L32.3267 35.4413C32.5701 35.198 32.9661 35.198 33.2111 35.4413C33.4545 35.6846 33.4545 36.0807 33.2111 36.3257L31.4659 38.0709C30.6117 38.9251 29.6552 39.89 28.6416 40.912C26.0204 43.5567 23.0499 46.5539 20.7593 48.7204C19.2054 50.1904 18.514 51.5061 18.3713 53.2612L18.3428 53.6002C18.2656 54.5484 18.1834 55.5284 18.3227 55.6928C18.5006 55.8355 19.5813 55.7096 20.6251 55.5888L20.6955 55.5804C20.8046 55.567 20.9154 55.5552 21.0261 55.5435C22.5281 55.3774 23.8236 55.233 24.6307 53.7882C25.0117 53.1052 25.1761 52.3031 25.3523 51.4556C25.4379 51.0394 25.5269 50.6098 25.6443 50.1718C25.7014 49.9587 25.8675 49.7909 26.0823 49.7322C26.4834 49.6214 26.9063 49.5476 27.3157 49.4771C28.091 49.3428 28.8915 49.2036 29.2389 48.8394C29.655 48.4048 29.8212 47.5926 29.999 46.735C30.0913 46.292 30.1853 45.8322 30.3212 45.3741C30.4035 45.0955 30.6669 44.9109 30.9573 44.9277C32.721 45.0317 35.9814 43.0734 37.5387 40.9757C37.7451 40.6988 38.1361 40.6418 38.4131 40.8465C38.6899 41.0529 38.7487 41.4439 38.5423 41.7208C37.0101 43.7832 33.7681 45.9833 31.4019 46.168C31.3365 46.4399 31.2794 46.7151 31.224 46.9853C31.0092 48.024 30.8078 49.0057 30.145 49.7005C29.5123 50.3633 28.5055 50.5378 27.5305 50.7074C27.2737 50.751 27.012 50.798 26.7636 50.8517C26.6948 51.1386 26.636 51.4272 26.579 51.7075C26.3927 52.612 26.1997 53.5467 25.7248 54.3975C24.6055 56.4046 22.778 56.6076 21.1672 56.7855C21.0598 56.7973 20.9507 56.809 20.8433 56.8224L20.7728 56.8308C19.917 56.9248 19.2743 57.0003 18.7725 57.0003L18.7727 56.9998Z" fill="white"/>
<path d="M41.6755 39.6627C41.0294 39.6627 40.3817 39.416 39.89 38.9243L35.2684 34.3061C34.7901 33.8295 34.5283 33.1952 34.5283 32.5188C34.5283 31.8442 34.7918 31.2099 35.2684 30.7316L43.5648 22.4416C44.5499 21.4583 46.1508 21.4583 47.1359 22.4416L51.7575 27.0598C52.2358 27.5364 52.4976 28.1707 52.4976 28.8471C52.4976 29.5217 52.2341 30.156 51.7575 30.6343L43.4611 38.9243C42.9694 39.4176 42.3216 39.6627 41.6755 39.6627ZM40.7727 38.0416C41.2711 38.5383 42.0799 38.5383 42.5783 38.0416L50.8765 29.7499C51.1181 29.5083 51.2507 29.1877 51.2507 28.8471C51.2507 28.5064 51.1181 28.1859 50.8765 27.9442L46.2548 23.326C45.7581 22.8293 44.9476 22.8293 44.4509 23.326L36.151 31.6177C35.9094 31.8594 35.7768 32.1799 35.7768 32.5206C35.7768 32.8612 35.9094 33.1818 36.151 33.4234L40.7727 38.0416Z" fill="white"/>
<path d="M45.1239 36.2176C44.4779 36.2176 43.8318 35.9726 43.3401 35.4809L38.712 30.8558C38.2354 30.3792 37.9736 29.7466 37.9736 29.0737C37.9736 28.4008 38.2354 27.7664 38.712 27.2915L40.1183 25.887C41.1017 24.9036 42.7009 24.9036 43.6843 25.887L48.3124 30.512C48.5154 30.7151 48.8477 30.8242 49.1414 30.9215C49.5424 31.0541 49.9972 31.2034 50.1113 31.6867C50.2254 32.1666 49.8613 32.5308 49.7421 32.6499L46.9078 35.4826C46.4161 35.9726 45.77 36.2176 45.1239 36.2176ZM41.9019 26.3991C41.5764 26.3991 41.2508 26.5233 41.0024 26.7716L39.5962 28.1762C39.3562 28.4162 39.2236 28.735 39.2236 29.0757C39.2236 29.4147 39.3562 29.7352 39.5962 29.9752L44.2243 34.6003C44.721 35.097 45.5282 35.0953 46.0249 34.6003L48.5756 32.0512C48.2182 31.9287 47.7835 31.7508 47.4311 31.3984L42.8031 26.7733C42.5547 26.5216 42.2275 26.3991 41.9019 26.3991Z" fill="white"/>
</svg>