<svg xmlns="http://www.w3.org/2000/svg" width="73" height="73" viewBox="0 0 73 73" fill="none">
<circle cx="36.5" cy="36.0186" r="36" fill="#015fc9"/>
<path fill-rule="evenodd" clip-rule="evenodd" d="M29.744 33.1935L33.5408 35.4064C33.6325 35.2608 33.68 35.0329 33.7433 34.8746C34.066 34.08 34.4995 33.7634 34.6229 33.5513L30.8261 31.3637C30.5919 31.5061 29.8515 32.7693 29.744 33.1935ZM40.1472 33.5481C40.2485 33.7412 40.6978 34.0768 41.011 34.8461C41.0806 35.017 41.1376 35.264 41.2262 35.3938L45.0293 33.2062C44.8996 32.7503 44.2035 31.541 43.944 31.3605L40.1472 33.5481ZM36.3093 44.6094C36.7269 44.6791 38.0621 44.7361 38.4165 44.6063C38.5083 44.5303 38.4576 40.2818 38.4576 40.1963C38.0337 40.2343 37.8976 40.3293 37.3439 40.3293C36.9294 40.3293 36.6763 40.2438 36.3093 40.1931V44.6094ZM36.9706 33.6082C35.5657 33.8299 34.3444 35.1278 34.6102 36.8152C34.8285 38.1955 36.1226 39.4175 37.7932 39.1642C39.179 38.9553 40.4067 37.6573 40.1599 35.9889C39.9542 34.5865 38.638 33.3487 36.9706 33.6082ZM31.5949 30.4709L35.6354 32.8136C35.7208 32.8263 36.2587 32.6015 36.4295 32.5604C37.9356 32.1805 38.9417 32.8231 39.0999 32.8168C39.1506 32.8136 43.0486 30.5849 43.1657 30.4709C41.7862 28.9703 39.4227 28.0902 37.3819 28.0902C35.6765 28.0902 34.0122 28.6253 32.696 29.5465C32.3163 29.8124 31.8544 30.1575 31.5949 30.4709ZM35.1734 44.3657V39.7183L34.5659 39.1326C34.3444 38.93 34.2084 38.7432 34.0312 38.4678C33.8793 38.2335 33.7464 37.9486 33.6484 37.651C33.5661 37.4041 33.4838 36.8026 33.4269 36.6728L29.3548 34.3016C29.1017 35.6755 28.9593 36.5809 29.2504 38.0119C29.6712 40.0792 30.8102 41.8172 32.4049 43.017C32.8574 43.3589 34.4077 44.3087 35.1734 44.3657ZM41.3084 36.6664C41.2135 38.0214 40.394 39.1674 39.5935 39.6423L39.5904 44.3688C40.2643 44.2865 41.5362 43.5837 41.9887 43.283C44.1497 41.833 45.6748 39.3225 45.6748 36.3942C45.6748 35.5964 45.5609 35.0519 45.4153 34.3174L41.3084 36.6664ZM36.7206 26.979C31.7499 27.3526 27.6019 31.6075 27.9784 37.0368C28.3233 42.0071 32.639 46.186 38.0685 45.7903C43.0391 45.4294 47.1745 41.1176 46.7853 35.6724C46.431 30.7527 42.0994 26.5738 36.7206 26.979ZM36.3631 25.1397C34.7747 25.2917 33.2022 25.7697 32.0094 26.4535C31.1488 26.9474 30.2407 27.5584 29.5889 28.2359L28.8802 28.9703C27.1874 30.854 25.8143 33.9058 26.1402 37.4389C26.6812 43.2893 31.8765 48.2343 38.4197 47.636C44.2699 47.1041 49.2121 41.8995 48.6236 35.3558C48.4749 33.7096 47.9876 32.2913 47.3137 31.0249C46.9752 30.3886 46.5986 29.8441 46.1968 29.3376L44.8047 27.8908C42.96 26.2034 39.8593 24.8041 36.3631 25.1397ZM24.9568 36.3562C24.9568 43.1975 30.4843 48.8168 37.2648 48.8168H37.5053C44.1813 48.8168 49.807 43.226 49.807 36.5556V36.2359C49.807 29.5149 44.232 23.9557 37.3059 23.9557C30.516 23.9525 24.9568 29.556 24.9568 36.3562ZM30.6679 18.653C30.8988 19.5805 32.0347 21.0716 31.2184 21.423C30.5571 21.708 30.3799 20.964 30.1996 20.5271C30.0161 20.0807 29.7566 19.5489 29.6174 19.1057C28.8074 19.2798 26.2952 20.9862 25.5865 21.5528C25.3555 21.7365 25.2131 21.8568 25.0011 22.0467C24.8461 22.1828 24.517 22.4456 24.4126 22.5881C24.6056 22.949 25.5991 23.7784 25.963 24.1678C26.175 24.3957 26.137 24.763 25.944 24.9529C25.4377 25.4658 24.8397 24.6617 24.6341 24.4527C24.2892 24.1076 23.9064 23.7562 23.59 23.4048C23.147 23.7341 21.9257 25.4056 21.6631 25.7919C21.3815 26.2066 21.0967 26.6593 20.8404 27.1278C20.6379 27.4982 20.2424 28.1852 20.1127 28.5904C20.2646 28.7171 21.2391 29.078 21.5017 29.1888C21.9415 29.3756 22.6977 29.5212 22.4319 30.2018C22.106 31.0439 20.6095 29.9169 19.6476 29.6636C19.328 30.8065 19.135 31.0566 18.825 32.5129C18.6636 33.2663 18.3725 35.0487 18.4453 35.8085C18.9009 35.856 19.578 35.818 20.0589 35.818C20.6126 35.818 21.1758 35.7705 21.2011 36.3625C21.2296 37.0052 20.581 36.9545 20.138 36.9545C19.5685 36.9545 19.0022 36.9545 18.4326 36.9545C18.4548 38.053 18.6003 39.2371 18.825 40.2723C18.98 40.9878 19.3597 42.558 19.6634 43.1089C20.2076 42.9221 21.2897 42.3681 21.7485 42.2541C22.0681 42.1749 22.3275 42.3491 22.4224 42.5548C22.723 43.2133 21.9352 43.4001 21.5112 43.5774C21.0429 43.7737 20.562 43.9858 20.1001 44.1631C20.4354 45.3091 22.1219 47.8196 23.0363 48.7852C23.1976 48.9561 23.3843 49.2189 23.5741 49.3677C24.2418 48.9751 25.2542 47.1168 25.9377 47.8417C26.4376 48.3704 25.6656 48.9213 25.4346 49.1492C25.0771 49.507 24.7417 49.852 24.3905 50.1971C24.5328 50.3491 24.8682 50.596 24.9537 50.8303C25.0865 51.1943 24.9125 51.5204 24.7037 51.6597C24.3683 51.8845 22.916 51.7895 22.413 51.7895C21.5777 51.7895 20.9354 51.6692 20.3848 52.1409C19.9514 52.5113 19.7299 53.2964 20.138 53.9264C20.5304 54.5311 21.005 54.5691 21.8941 54.5691H29.1776C29.4402 53.8251 29.8199 53.0685 30.1426 52.3404C30.2692 52.0523 30.3261 51.8275 30.6932 51.7958C31.0412 51.7642 31.269 51.989 31.3102 52.2707C31.3639 52.6411 30.5476 54.1354 30.4179 54.5691L36.7997 54.5754C36.8124 54.0277 36.8029 53.4769 36.8029 52.9355C36.8029 52.3973 36.7522 51.7927 37.3724 51.7958C37.9704 51.799 37.9388 52.3689 37.9388 52.8944C37.9388 53.4484 37.9293 54.0151 37.9419 54.5659L44.3395 54.5723C44.2035 54.0499 43.3714 52.6854 43.4346 52.2707C43.4758 51.989 43.7036 51.7642 44.0516 51.7958C44.5325 51.8402 44.6813 52.5335 44.9375 53.0875C45.0483 53.3281 45.1622 53.5814 45.2698 53.8346C45.3489 54.0151 45.4944 54.4899 45.6526 54.5723C45.8203 54.6134 51.7845 54.5723 52.8539 54.5723C53.7367 54.5723 54.2461 54.5058 54.6099 53.9296C55.0117 53.2933 54.8187 52.5588 54.3789 52.1662C53.8379 51.6787 53.2146 51.7927 52.373 51.7927C51.8667 51.7927 50.4081 51.8877 50.0632 51.6819C49.8607 51.5616 49.6519 51.2292 49.7753 50.8588C49.8512 50.634 50.1866 50.3617 50.3385 50.2129C49.9398 49.5608 48.1174 48.5477 48.804 47.8417C49.3134 47.3162 49.8766 48.1172 50.0917 48.3324C50.2752 48.5161 50.4303 48.668 50.6106 48.8516C50.772 49.0163 50.9776 49.2854 51.1706 49.374C51.8825 48.7028 52.5533 47.7784 53.0975 46.9775C53.5373 46.3253 54.4106 44.9229 54.6416 44.1726C54.1954 43.9794 53.724 43.7927 53.2621 43.5964C52.8254 43.4128 52.0629 43.2513 52.3097 42.5865C52.3888 42.3712 52.6387 42.1876 52.9615 42.2509C53.3538 42.3301 54.5909 42.9506 55.0814 43.1152C55.8249 41.5703 56.2615 38.6989 56.3122 36.9608C55.7585 36.9608 55.2048 36.9608 54.6511 36.9608C54.1163 36.9608 53.55 36.9925 53.5436 36.4005C53.5373 35.7927 54.0942 35.8243 54.6511 35.8243C55.113 35.8243 55.8787 35.8686 56.3027 35.8148C56.3944 34.5073 55.9356 32.3831 55.5655 31.0851C55.4262 30.6007 55.2111 30.1069 55.1003 29.6731C54.0214 29.9581 52.6609 31.0693 52.316 30.2177C52.0407 29.5402 52.8096 29.3756 53.2494 29.1983C53.4551 29.116 54.5466 28.6822 54.6352 28.5999C54.1353 27.2133 52.7242 25.1144 51.6895 23.9968C51.5124 23.8037 51.3415 23.579 51.158 23.4143C50.8258 23.7626 50.4809 24.0918 50.1328 24.4401C49.905 24.668 49.3513 25.4373 48.8261 24.9814C48.2534 24.4812 49.0887 23.867 49.2817 23.6739C49.5032 23.4523 50.2088 22.8002 50.329 22.5976C50 22.1448 48.3958 20.9767 47.9402 20.6632C47.3612 20.2675 45.7792 19.2766 45.1242 19.112C44.9755 19.5647 44.7414 20.0554 44.5579 20.5081C44.3807 20.9418 44.1972 21.6921 43.558 21.4484C42.9284 21.2078 43.3271 20.5271 43.5011 20.0902C43.6751 19.6597 43.963 19.0835 44.0801 18.6688C42.8335 18.0736 39.5366 17.393 37.9419 17.4468C37.9103 17.8583 38.0084 19.5995 37.885 19.8718C37.7014 20.2802 37.0686 20.3055 36.8598 19.9003C36.7174 19.6217 36.8187 17.8583 36.7902 17.4468C35.1481 17.3296 32.0315 18.0989 30.6679 18.653ZM22.53 50.3522C21.2043 50.4915 20.6063 50.137 19.5812 50.9632C18.0719 52.1821 18.1289 54.5659 19.9039 55.6011C20.8056 56.1267 21.9573 55.981 23.0995 55.981H51.6231C52.7337 55.981 53.9455 56.1267 54.8314 55.6106C56.6159 54.5754 56.7077 52.2201 55.2016 50.9822C54.2176 50.1749 53.5785 50.4599 52.2337 50.3522C52.3603 50.1655 52.5153 50.0546 52.6577 49.8742C52.8001 49.6937 52.9488 49.5513 53.1007 49.3582C55.1826 46.7432 56.6729 43.9161 57.3499 40.4432C58.2612 35.7768 57.5841 31.5695 55.8186 27.7135C53.088 21.7554 46.4563 16.0032 37.3819 16C32.5631 16 27.8645 17.814 24.7923 20.353C24.6119 20.5018 24.4506 20.6189 24.2829 20.7645C24.0994 20.9197 23.9507 21.0716 23.7735 21.2141C23.6058 21.3502 23.4571 21.5148 23.2989 21.6605C22.8053 22.11 21.8972 23.0883 21.4986 23.6201C20.4639 24.9941 19.7235 25.985 18.9547 27.6787C16.7367 32.5604 16.2843 37.9644 18.2301 43.3495C19.0243 45.5497 20.1887 47.5505 21.6473 49.3392L22.3212 50.1053C22.4003 50.1908 22.4636 50.2699 22.53 50.3522Z" fill="white"/>
</svg>